<?xml version="1.0" encoding="UTF-8"?>
<!DOCTYPE svg PUBLIC "-//W3C//DTD SVG 1.1//EN" "http://www.w3.org/Graphics/SVG/1.1/DTD/svg11.dtd">
<!-- Creator: CorelDRAW 2020 (64-Bit Evaluation Version) -->
<svg xmlns="http://www.w3.org/2000/svg" xml:space="preserve" width="210mm" height="297mm" version="1.1" style="shape-rendering:geometricPrecision; text-rendering:geometricPrecision; image-rendering:optimizeQuality; fill-rule:evenodd; clip-rule:evenodd"
viewBox="0 0 21000 29700"
 xmlns:xlink="http://www.w3.org/1999/xlink"
 xmlns:xodm="http://www.corel.com/coreldraw/odm/2003">
 <defs>
  <style type="text/css">
   <![CDATA[
    .fil0 {fill:#EDE956}
    .fil1 {fill:#4278BC}
   ]]>
  </style>
 </defs>
 <g id="Layer_x0020_1">
  <metadata id="CorelCorpID_0Corel-Layer"/>
  <g id="_1754531977584">
   <path class="fil0" d="M11725.43 10664.87l4451.02 9592.88c533.06,1148.81 782.8,1991.3 722.27,2535.4 -60.79,546.83 -413.73,970.9 -1056.68,1274.89 -347.29,164.22 -720.15,225.72 -1121.17,191.37 -396.3,-36.6 -862.35,-172.21 -1391.09,-416.03l-1094.24 3090c973.11,418.46 1892.76,626.69 2763.4,634.24 868.4,2.74 1741.43,-203.29 2623.69,-620.51 1590.93,-752.3 2573.44,-1710.79 2944.76,-2868.26 371.31,-1157.55 156.94,-2589.47 -651.2,-4291.69l-6333.05 -13339.42 -1857.71 4217.13z"/>
   <path class="fil1" d="M13992.59 18785.97l-1380.13 -2974.51 -4543.11 -103.61 0 0 0 0 4577.32 -10462.82c2.29,-6.89 -4665.04,10821.63 -4577.32,10462.82 29.05,107.62 4388.55,-10173.89 4417.95,-10070.68l309.29 -732.42 -1669.6 -3587.04 -10782.22 23142.56 3799.95 0 2585.28 -5731.12 7262.59 56.82z"/>
  </g>
 </g>
</svg>
